<svg width="512" height="495" viewBox="0 0 512 495" fill="none" xmlns="http://www.w3.org/2000/svg">
<rect width="512" height="495" rx="142" fill="#28BD66"/>
<path d="M193.68 284.55C187.9 276.867 176.939 275.286 169.25 281.062C161.561 286.839 159.98 297.792 165.76 305.475L186.536 333.157C189.154 336.645 188.772 341.494 185.718 344.546L178.738 351.521C175.085 355.172 169.141 354.899 165.869 350.921L116.9 292.179V211.312C116.9 201.667 109.102 193.875 99.45 193.875C89.798 193.875 82 201.667 82 211.312V330.323C82 336.263 84.0177 342.039 87.7258 346.671L144.493 419.854C147.219 423.396 149.073 427.429 150.164 431.679C151.146 435.439 154.581 438 158.507 438H230.325C235.124 438 239.05 434.077 239.05 429.281V368.25C239.05 353.156 234.142 338.497 225.09 326.4L193.68 284.55ZM413.55 193.875C403.898 193.875 396.1 201.667 396.1 211.312V292.179L347.131 350.921C343.859 354.845 337.861 355.117 334.262 351.521L327.282 344.546C324.228 341.494 323.846 336.645 326.464 333.157L347.24 305.475C353.02 297.792 351.439 286.839 343.75 281.062C336.061 275.286 325.1 276.867 319.32 284.55L287.91 326.4C278.858 338.497 273.95 353.156 273.95 368.25V429.281C273.95 434.077 277.876 438 282.675 438H354.493C358.364 438 361.854 435.439 362.836 431.679C363.927 427.429 365.781 423.396 368.507 419.854L425.274 346.671C428.982 342.039 431 336.263 431 330.323V211.312C431 201.667 423.202 193.875 413.55 193.875Z" fill="white"/>
<path d="M256.499 237.585L244.235 226.42C200.674 186.92 171.916 160.784 171.916 128.896C171.916 102.76 192.385 82.375 218.437 82.375C233.154 82.375 247.28 89.2262 256.499 99.9683C265.719 89.2262 279.844 82.375 294.562 82.375C320.614 82.375 341.083 102.76 341.083 128.896C341.083 160.784 312.324 186.92 268.764 226.42L256.499 237.585Z" fill="white"/>
</svg>
